<?xml version="1.0" encoding="utf-8"?><svg xmlns="http://www.w3.org/2000/svg" xmlns:xlink="http://www.w3.org/1999/xlink"><symbol viewBox="0 0 30 30" id="icon_arrow-circle-down"><title>arrow-circle-down</title></symbol><symbol viewBox="0 0 30 30" id="icon_arrow-circle-down-filled"><title>arrow-circle-down-filled</title><path d="M15 1C7.268 1 1 7.268 1 15c0 7.734 6.268 14 14 14 7.734 0 14-6.266 14-14 0-7.732-6.266-14-14-14zm6.26 16.527l-5.6 5.6-.302.202a.91.91 0 0 1-.71 0l-.296-.196-.007-.008-5.6-5.6a.934.934 0 0 1 0-1.32.942.942 0 0 1 1.32 0l4.002 4.007V5.667a.934.934 0 0 1 1.866 0v14.547l4.006-4.006a.932.932 0 0 1 1.32 1.32z" fill-rule="evenodd"/></symbol><symbol viewBox="0 0 30 30" id="icon_arrow-circle-left"><title>arrow-circle-left</title></symbol><symbol viewBox="0 0 30 30" id="icon_arrow-circle-left-filled"><title>arrow-circle-left-filled</title><path d="M29 15c0-7.732-6.268-14-14-14C7.266 1 1 7.268 1 15c0 7.734 6.266 14 14 14 7.732 0 14-6.266 14-14zm-16.527 6.26l-5.6-5.6-.202-.302a.91.91 0 0 1 0-.71l.196-.296.008-.007 5.6-5.6a.934.934 0 0 1 1.32 0c.36.364.36.956 0 1.32l-4.007 4.002h14.547a.934.934 0 0 1 0 1.866H9.786l4.006 4.006a.932.932 0 0 1-1.32 1.32z" fill-rule="evenodd"/></symbol><symbol viewBox="0 0 30 30" id="icon_arrow-circle-right"><title>arrow-circle-right</title></symbol><symbol viewBox="0 0 30 30" id="icon_arrow-circle-right-filled"><title>arrow-circle-right-filled</title><path d="M1 15C1 7.268 7.268 1 15 1c7.734 0 14 6.268 14 14 0 7.734-6.266 14-14 14-7.732 0-14-6.266-14-14zm16.527 6.26l5.6-5.6.202-.302a.91.91 0 0 0 0-.71l-.196-.296-.008-.007-5.6-5.6a.934.934 0 0 0-1.32 0 .942.942 0 0 0 0 1.32l4.007 4.002H5.667a.934.934 0 0 0 0 1.866h14.547l-4.006 4.006a.932.932 0 0 0 1.32 1.32z" fill-rule="evenodd"/></symbol><symbol viewBox="0 0 30 30" id="icon_arrow-circle-up"><title>arrow-circle-up</title></symbol><symbol viewBox="0 0 30 30" id="icon_arrow-circle-up-filled"><title>arrow-circle-up-filled</title><path d="M15 29C7.268 29 1 22.732 1 15 1 7.266 7.268 1 15 1c7.734 0 14 6.266 14 14 0 7.732-6.266 14-14 14zm6.26-16.527l-5.6-5.6-.302-.202a.91.91 0 0 0-.71 0l-.296.196-.007.008-5.6 5.6a.934.934 0 0 0 0 1.32c.364.36.956.36 1.32 0l4.002-4.007v14.547a.934.934 0 0 0 1.866 0V9.786l4.006 4.006a.932.932 0 0 0 1.32-1.32z" fill-rule="evenodd"/></symbol><symbol viewBox="0 0 30 30" id="icon_arrow-down"><title>arrow-down</title><path d="M21.654 18.04a.925.925 0 0 0-1.306 0L16.385 22V3.922a.924.924 0 0 0-1.847 0v18.08l-3.96-3.96a.93.93 0 0 0-1.307 0 .925.925 0 0 0 0 1.305l5.54 5.538.008.008.292.192a.896.896 0 0 0 .704 0l.3-.2 5.538-5.538c.36-.36.36-.945.002-1.307z" fill-rule="evenodd"/></symbol><symbol viewBox="0 0 30 30" id="icon_arrow-left"><title>arrow-left</title><path d="M12.423 21.192a.927.927 0 0 0 0-1.305L8.46 15.923h18.078a.924.924 0 0 0 0-1.846H8.458l3.963-3.962a.923.923 0 1 0-1.303-1.305l-5.54 5.538-.006.008-.19.29a.904.904 0 0 0 0 .707l.2.3 5.537 5.537c.36.36.945.36 1.307.002z" fill-rule="evenodd"/></symbol><symbol viewBox="0 0 30 30" id="icon_arrow-right"><title>arrow-right</title><path d="M18.5 21.192a.927.927 0 0 1 0-1.305l3.964-3.964H4.384a.923.923 0 0 1 0-1.846h18.08L18.5 10.115a.923.923 0 0 1 1.305-1.305l5.54 5.538.006.008.193.29a.904.904 0 0 1 0 .707l-.2.3-5.538 5.537a.928.928 0 0 1-1.307.002z" fill-rule="evenodd"/></symbol><symbol viewBox="0 0 30 30" id="icon_arrow-up"><title>arrow-up</title><path d="M9.27 11.96c.36.36.947.36 1.305 0L14.538 8v18.08a.923.923 0 0 0 1.847 0V7.996l3.96 3.962a.93.93 0 0 0 1.307 0 .925.925 0 0 0 0-1.307l-5.54-5.538-.006-.008-.292-.192a.9.9 0 0 0-.705 0l-.3.2-5.54 5.538a.926.926 0 0 0 0 1.307z" fill-rule="evenodd"/></symbol><symbol viewBox="0 0 30 30" id="icon_bookmark"><title>bookmark</title></symbol><symbol viewBox="0 0 30 30" id="icon_bookmark-filled"><title>bookmark-filled</title><path d="M5 27.25a1.75 1.75 0 0 0 2.987 1.237l7.513-7.512 7.513 7.512a1.747 1.747 0 0 0 1.907.38A1.75 1.75 0 0 0 26 27.25v-21H5v21zM24.25 1H6.75A1.75 1.75 0 0 0 5 2.75V4.5h21V2.75A1.75 1.75 0 0 0 24.25 1z" fill-rule="evenodd"/></symbol><symbol viewBox="0 0 30 30" id="icon_bubble"><title>bubble</title><path d="M15 3.037C7.338 3.037 1.107 8.15 1.107 14.44c0 2.963 1.43 5.83 3.946 7.952a15.152 15.152 0 0 1-2.27 3.634.88.88 0 0 0-.122.933.876.876 0 0 0 .795.5c2.51 0 4.635-.61 7.048-2.033 1.17.185 3.483.416 4.498.416 7.663 0 13.894-5.117 13.894-11.406 0-6.288-6.232-11.4-13.893-11.4zm0 21.06c-1.005 0-3.62-.27-4.503-.444a.902.902 0 0 0-.62.113c-1.632.997-3.055 1.568-4.577 1.81a16.65 16.65 0 0 0 1.627-3.14.87.87 0 0 0-.287-1.014c-2.44-1.85-3.783-4.33-3.783-6.982 0-5.324 5.447-9.655 12.143-9.655 6.695 0 12.143 4.33 12.143 9.655 0 5.323-5.448 9.656-12.143 9.656z" fill-rule="evenodd"/></symbol><symbol viewBox="0 0 30 30" id="icon_chevron-circle-down"><title>chevron-circle-down</title><g fill-rule="evenodd"><path d="M14.938 28.875c7.7 0 13.94-6.24 13.94-13.938C28.878 7.237 22.634 1 14.938 1S1 7.24 1 14.938c0 7.7 6.24 13.937 13.938 13.937zm0-26.008c6.657 0 12.072 5.413 12.072 12.07 0 6.66-5.415 12.073-12.072 12.073-6.656 0-12.07-5.417-12.07-12.072 0-6.654 5.412-12.07 12.07-12.07z"/><path d="M14.337 19.387a.93.93 0 0 0 .663.272c.24 0 .48-.09.663-.274l6.053-6.054a.934.934 0 0 0-1.32-1.32L15 17.41l-5.397-5.397a.934.934 0 0 0-1.32 1.32l6.054 6.054z"/></g></symbol><symbol viewBox="0 0 30 30" id="icon_chevron-circle-down-filled"><title>chevron-circle-down-filled</title><path d="M29 15c0-7.732-6.268-14-14-14C7.266 1 1 7.268 1 15c0 7.734 6.266 14 14 14 7.732 0 14-6.266 14-14zm-14.663 4.387l-6.05-6.054a.932.932 0 1 1 1.318-1.32L15 17.41l5.397-5.397a.934.934 0 0 1 1.32 1.32l-6.054 6.054a.92.92 0 0 1-.663.272c-.24 0-.48-.09-.663-.274z" fill-rule="evenodd"/></symbol><symbol viewBox="0 0 30 30" id="icon_chevron-circle-left"><title>chevron-circle-left</title><g fill-rule="evenodd"><path d="M1.125 14.938c0 7.7 6.24 13.94 13.938 13.94 7.7 0 13.937-6.243 13.937-13.94C29 7.242 22.76 1 15.062 1 7.362 1 1.125 7.24 1.125 14.938zm26.008 0c0 6.657-5.413 12.072-12.07 12.072-6.66 0-12.073-5.415-12.073-12.072 0-6.656 5.417-12.07 12.072-12.07 6.654 0 12.07 5.412 12.07 12.07z"/><path d="M10.613 14.337a.93.93 0 0 0-.272.663c0 .24.09.48.274.663l6.054 6.053a.934.934 0 0 0 1.32-1.32L12.59 15l5.397-5.397a.934.934 0 0 0-1.32-1.32l-6.054 6.054z"/></g></symbol><symbol viewBox="0 0 30 30" id="icon_chevron-circle-left-filled"><title>chevron-circle-left-filled</title><path d="M15 29c7.732 0 14-6.268 14-14 0-7.734-6.268-14-14-14C7.266 1 1 7.266 1 15c0 7.732 6.266 14 14 14zm-4.387-14.663l6.054-6.05a.932.932 0 1 1 1.32 1.318L12.59 15l5.397 5.397a.934.934 0 0 1-1.32 1.32l-6.054-6.054A.92.92 0 0 1 10.34 15c0-.24.09-.48.274-.663z" fill-rule="evenodd"/></symbol><symbol viewBox="0 0 30 30" id="icon_chevron-circle-right"><title>chevron-circle-right</title><g fill-rule="evenodd"><path d="M28.875 15.062c0-7.7-6.24-13.94-13.938-13.94C7.237 1.122 1 7.366 1 15.062S7.24 29 14.938 29c7.7 0 13.937-6.24 13.937-13.938zm-26.008 0c0-6.657 5.413-12.072 12.07-12.072 6.66 0 12.073 5.415 12.073 12.072 0 6.656-5.417 12.07-12.072 12.07-6.654 0-12.07-5.412-12.07-12.07z"/><path d="M19.387 15.663A.93.93 0 0 0 19.66 15c0-.24-.09-.48-.274-.663l-6.054-6.053a.934.934 0 0 0-1.32 1.32L17.41 15l-5.397 5.397a.934.934 0 0 0 1.32 1.32l6.054-6.054z"/></g></symbol><symbol viewBox="0 0 30 30" id="icon_chevron-circle-right-filled"><title>chevron-circle-right-filled</title><path d="M15 1C7.268 1 1 7.268 1 15c0 7.734 6.268 14 14 14 7.734 0 14-6.266 14-14 0-7.732-6.266-14-14-14zm4.387 14.663l-6.054 6.05a.932.932 0 1 1-1.32-1.318L17.41 15l-5.397-5.397a.934.934 0 0 1 1.32-1.32l6.054 6.054a.92.92 0 0 1 .272.663c0 .24-.09.48-.274.663z" fill-rule="evenodd"/></symbol><symbol viewBox="0 0 30 30" id="icon_chevron-circle-up"><title>chevron-circle-up</title><g fill-rule="evenodd"><path d="M15.062 1.125c-7.7 0-13.94 6.24-13.94 13.938 0 7.7 6.243 13.937 13.94 13.937C22.758 29 29 22.76 29 15.062c0-7.7-6.24-13.937-13.938-13.937zm0 26.008c-6.657 0-12.072-5.413-12.072-12.07 0-6.66 5.415-12.073 12.072-12.073 6.656 0 12.07 5.417 12.07 12.072 0 6.654-5.412 12.07-12.07 12.07z"/><path d="M15 10.34c-.24 0-.48.09-.663.273l-6.053 6.054a.934.934 0 0 0 1.32 1.32L15 12.59l5.397 5.397a.934.934 0 0 0 1.32-1.32l-6.054-6.054A.93.93 0 0 0 15 10.34z"/></g></symbol><symbol viewBox="0 0 30 30" id="icon_chevron-circle-up-filled"><title>chevron-circle-up-filled</title><path d="M1 15c0 7.732 6.268 14 14 14 7.734 0 14-6.268 14-14 0-7.734-6.266-14-14-14C7.268 1 1 7.266 1 15zm14.663-4.387l6.05 6.054a.932.932 0 1 1-1.318 1.32L15 12.59l-5.397 5.397a.934.934 0 0 1-1.32-1.32l6.054-6.054A.92.92 0 0 1 15 10.34c.24 0 .48.09.663.274z" fill-rule="evenodd"/></symbol><symbol viewBox="0 0 30 30" id="icon_chevron-down"><title>chevron-down</title><path d="M14.327 18.646c.183.183.42.273.662.273.24 0 .48-.09.66-.275l6.055-6.053a.934.934 0 0 0-1.32-1.32L14.99 16.67l-5.397-5.397a.934.934 0 0 0-1.32 1.32l6.054 6.053z" fill-rule="evenodd"/></symbol><symbol viewBox="0 0 30 30" id="icon_chevron-left"><title>chevron-left</title><path d="M11.302 15.622a.93.93 0 0 1-.272-.663c0-.24.09-.48.272-.664l6.054-6.054a.934.934 0 0 1 1.32 1.32L13.28 14.96l5.396 5.396a.934.934 0 0 1-1.32 1.32l-6.054-6.054z" fill-rule="evenodd"/></symbol><symbol viewBox="0 0 30 30" id="icon_chevron-right"><title>chevron-right</title><path d="M18.676 15.622a.93.93 0 0 0 .273-.663.93.93 0 0 0-.275-.664l-6.053-6.054a.934.934 0 0 0-1.32 1.32L16.7 14.96l-5.397 5.396a.934.934 0 0 0 1.32 1.32l6.053-6.054z" fill-rule="evenodd"/></symbol><symbol viewBox="0 0 30 30" id="icon_chevron-up"><title>chevron-up</title><path d="M14.99 11a.93.93 0 0 0-.663.273l-6.054 6.053a.934.934 0 0 0 1.32 1.32l5.396-5.397 5.395 5.395a.934.934 0 0 0 1.32-1.32l-6.054-6.053a.928.928 0 0 0-.66-.272z" fill-rule="evenodd"/></symbol><symbol viewBox="0 0 30 30" id="icon_close"><title>close</title><path d="M20.167 8.513l-5.13 5.132-4.603-5.132a.934.934 0 0 0-1.32 1.32l4.604 5.132-5.203 5.202a.934.934 0 0 0 1.32 1.32l5.13-5.13 4.605 5.13a.93.93 0 0 0 1.317 0 .934.934 0 0 0 0-1.32l-4.603-5.13 5.203-5.204a.934.934 0 0 0-1.32-1.32z" fill-rule="evenodd"/></symbol><symbol viewBox="0 0 30 30" id="icon_close-circle"><title>close-circle</title><g fill-rule="evenodd"><path d="M15 1C7.268 1 1 7.268 1 15c0 7.734 6.268 14 14 14 7.734 0 14-6.266 14-14 0-7.732-6.266-14-14-14zm0 26.133C8.31 27.133 2.867 21.69 2.867 15 2.867 8.31 8.31 2.867 15 2.867c6.69 0 12.133 5.443 12.133 12.133 0 6.69-5.443 12.133-12.133 12.133z"/><path d="M20.167 8.513l-5.13 5.132-4.603-5.132a.934.934 0 0 0-1.32 1.32l4.604 5.132-5.203 5.202a.934.934 0 0 0 1.32 1.32l5.13-5.13 4.605 5.13a.93.93 0 0 0 1.317 0 .934.934 0 0 0 0-1.32l-4.603-5.13 5.203-5.204a.934.934 0 0 0-1.32-1.32z"/></g></symbol><symbol viewBox="0 0 30 30" id="icon_close-circle-filled"><title>close-circle-filled</title><path d="M15 1C7.268 1 1 7.268 1 15c0 7.734 6.268 14 14 14 7.734 0 14-6.266 14-14 0-7.732-6.266-14-14-14zm6.487 8.833l-5.203 5.204 4.605 5.13a.934.934 0 0 1-1.32 1.32l-4.606-5.13-5.132 5.13a.934.934 0 0 1-1.32-1.32l5.203-5.202-4.603-5.132a.934.934 0 0 1 1.32-1.32l4.604 5.132 5.13-5.132a.934.934 0 0 1 1.32 1.32z" fill-rule="evenodd"/></symbol><symbol viewBox="0 0 30 30" id="icon_cross"><title>cross</title><path d="M22.467 14.067h-6.534V7.533a.933.933 0 0 0-1.866 0v6.534H7.533a.933.933 0 0 0 0 1.866h6.534v6.534c0 .513.418.933.933.933.513 0 .933-.42.933-.933v-6.534h6.534c.513 0 .933-.42.933-.933a.935.935 0 0 0-.933-.933z" fill-rule="evenodd"/></symbol><symbol viewBox="0 0 30 30" id="icon_cross-circle"><title>cross-circle</title></symbol></svg>