<?xml version="1.0" encoding="utf-8"?>
<!-- Generator: Adobe Illustrator 16.0.4, SVG Export Plug-In . SVG Version: 6.00 Build 0)  -->
<!DOCTYPE svg PUBLIC "-//W3C//DTD SVG 1.1//EN" "http://www.w3.org/Graphics/SVG/1.1/DTD/svg11.dtd">
<svg version="1.1" id="Capa_1" xmlns="http://www.w3.org/2000/svg" xmlns:xlink="http://www.w3.org/1999/xlink" x="0px" y="0px"
	 width="16px" height="16px" viewBox="0 0 16 16" enable-background="new 0 0 16 16" xml:space="preserve">
<path d="M8.042,0c-4.418,0-8,3.582-8,8s3.582,8,8,8s8-3.582,8-8S12.46,0,8.042,0z M11.748,5.787l-3.832,5.857l-0.003,0.002
	l-0.056,0.093l-0.12,0.087l-0.031,0.021L7.51,11.93l-0.068,0.016l-0.168,0.003L7.157,11.93l-0.115-0.046l-0.096-0.038l-0.053-0.053
	l-0.026-0.016L4.636,9.714C4.352,9.451,4.335,9.008,4.597,8.725c0.262-0.283,0.705-0.301,0.989-0.039l1.615,1.494l3.375-5.159
	c0.212-0.323,0.645-0.414,0.969-0.203C11.869,5.03,11.96,5.464,11.748,5.787z"/>
</svg>
