<?xml version="1.0" encoding="utf-8"?>
<!-- Generator: Adobe Illustrator 16.0.4, SVG Export Plug-In . SVG Version: 6.00 Build 0)  -->
<!DOCTYPE svg PUBLIC "-//W3C//DTD SVG 1.1//EN" "http://www.w3.org/Graphics/SVG/1.1/DTD/svg11.dtd">
<svg version="1.1" id="Capa_1" xmlns="http://www.w3.org/2000/svg" xmlns:xlink="http://www.w3.org/1999/xlink" x="0px" y="0px"
	 width="16px" height="16px" viewBox="0 0 16 16" enable-background="new 0 0 16 16" xml:space="preserve">
<path d="M13.673,2.125c-0.323-0.212-0.757-0.121-0.969,0.203L7.2,11.148l-3.044-2.96C3.872,7.925,3.43,7.942,3.167,8.226
	C2.905,8.51,2.922,8.953,3.206,9.215l3.662,3.562l0.026,0.017l0.053,0.054l0.096,0.037l0.115,0.047l0.117,0.018l0.168-0.002
	l0.068-0.016l0.196-0.082l0.031-0.022l0.12-0.087l0.056-0.092l0.003-0.004l5.959-9.551C14.088,2.771,13.997,2.337,13.673,2.125z"/>
</svg>
