<?xml version="1.0" encoding="utf-8"?>
<!-- Generator: Adobe Illustrator 16.0.4, SVG Export Plug-In . SVG Version: 6.00 Build 0)  -->
<!DOCTYPE svg PUBLIC "-//W3C//DTD SVG 1.1//EN" "http://www.w3.org/Graphics/SVG/1.1/DTD/svg11.dtd">
<svg version="1.1" id="Capa_1" xmlns="http://www.w3.org/2000/svg" xmlns:xlink="http://www.w3.org/1999/xlink" x="0px" y="0px"
	 width="16px" height="16px" viewBox="0 0 16 16" enable-background="new 0 0 16 16" xml:space="preserve">
<g>
	<path d="M14.854,1.146c-0.194-0.195-0.512-0.195-0.707,0L10,5.293V2.5C10,2.224,9.775,2,9.5,2S9,2.224,9,2.5v4.002l0.039,0.189
		l0.104,0.157l0.004,0.006L9.15,6.856l0.158,0.105L9.5,7h4C13.775,7,14,6.776,14,6.5S13.775,6,13.5,6h-2.793l4.146-4.146
		C15.049,1.658,15.049,1.342,14.854,1.146z"/>
	<path d="M6.691,9.039L6.5,9h-4C2.224,9,2,9.225,2,9.5S2.224,10,2.5,10h2.793l-4.146,4.146c-0.196,0.195-0.196,0.512-0.001,0.707
		s0.512,0.195,0.707,0L6,10.707V13.5C6,13.775,6.224,14,6.5,14S7,13.775,7,13.5v-4L6.961,9.309C6.91,9.188,6.813,9.089,6.691,9.039z
		"/>
</g>
</svg>
