<?xml version="1.0" encoding="utf-8"?>
<!-- Generator: Adobe Illustrator 16.0.4, SVG Export Plug-In . SVG Version: 6.00 Build 0)  -->
<!DOCTYPE svg PUBLIC "-//W3C//DTD SVG 1.1//EN" "http://www.w3.org/Graphics/SVG/1.1/DTD/svg11.dtd">
<svg version="1.1" id="Capa_1" xmlns="http://www.w3.org/2000/svg" xmlns:xlink="http://www.w3.org/1999/xlink" x="0px" y="0px"
	 width="16.393px" height="16px" viewBox="0 0 16.393 16" enable-background="new 0 0 16.393 16" xml:space="preserve">
<g>
	<path d="M13.813,3.254c-1.458-1.458-3.369-2.187-5.28-2.187s-3.822,0.729-5.28,2.187c-2.916,2.916-2.916,7.645,0,10.559
		C4.712,15.271,6.622,16,8.533,16s3.822-0.729,5.28-2.188C16.729,10.896,16.729,6.169,13.813,3.254z M13.106,13.105
		C11.885,14.327,10.261,15,8.533,15c-1.727,0-3.351-0.673-4.573-1.895c-1.221-1.221-1.894-2.845-1.894-4.572
		c0-1.728,0.673-3.351,1.894-4.573c1.222-1.221,2.846-1.894,4.573-1.894c1.727,0,3.351,0.673,4.573,1.894
		C14.328,5.181,15,6.806,15,8.533C15,10.26,14.327,11.885,13.106,13.105z"/>
	<path d="M11.5,8H9V4.493c0-0.276-0.224-0.5-0.5-0.5c-0.275,0-0.5,0.224-0.5,0.5V8.5C8,8.775,8.224,9,8.5,9h3
		C11.776,9,12,8.775,12,8.5C12,8.224,11.776,8,11.5,8z"/>
</g>
</svg>
