<?xml version="1.0" encoding="utf-8"?>
<!-- Generator: Adobe Illustrator 16.0.4, SVG Export Plug-In . SVG Version: 6.00 Build 0)  -->
<!DOCTYPE svg PUBLIC "-//W3C//DTD SVG 1.1//EN" "http://www.w3.org/Graphics/SVG/1.1/DTD/svg11.dtd">
<svg version="1.1" id="Capa_1" xmlns="http://www.w3.org/2000/svg" xmlns:xlink="http://www.w3.org/1999/xlink" x="0px" y="0px"
	 width="16px" height="16px" viewBox="0 0 16 16" enable-background="new 0 0 16 16" xml:space="preserve">
<path d="M13,0H3C1.343,0,0,1.343,0,3v10c0,1.657,1.343,3,3,3h10c1.657,0,3-1.343,3-3V3C16,1.343,14.657,0,13,0z M10.068,7.999
	L8.757,8l-0.001,4.8H6.957V8h-1.2V6.346l1.2-0.001L6.955,5.371c0-1.35,0.366-2.171,1.955-2.171h1.324v1.655H9.406
	c-0.619,0-0.649,0.231-0.649,0.662L8.755,6.345h1.488L10.068,7.999z"/>
</svg>
