<?xml version="1.0" encoding="utf-8"?>
<!-- Generator: Adobe Illustrator 16.0.4, SVG Export Plug-In . SVG Version: 6.00 Build 0)  -->
<!DOCTYPE svg PUBLIC "-//W3C//DTD SVG 1.1//EN" "http://www.w3.org/Graphics/SVG/1.1/DTD/svg11.dtd">
<svg version="1.1" id="Capa_1" xmlns="http://www.w3.org/2000/svg" xmlns:xlink="http://www.w3.org/1999/xlink" x="0px" y="0px"
	 width="16px" height="16px" viewBox="0 0 16 16" enable-background="new 0 0 16 16" xml:space="preserve">
<g>
	<path d="M0.006,0v3.068C7.128,3.068,12.924,8.87,12.924,16H16C16,7.18,8.824,0,0.006,0z"/>
	<path d="M0.002,5.435v3.067c1.997,0,3.874,0.781,5.288,2.196C6.702,12.109,7.482,13.995,7.482,16h3.081
		C10.562,10.174,5.824,5.435,0.002,5.435z"/>
	<path d="M2.13,11.732c-1.175,0-2.13,0.957-2.13,2.125c0,1.175,0.955,2.123,2.13,2.123c1.179,0,2.133-0.948,2.133-2.123
		C4.262,12.691,3.309,11.732,2.13,11.732z"/>
</g>
</svg>
