<?xml version="1.0" encoding="utf-8"?>
<!-- Generator: Adobe Illustrator 16.0.4, SVG Export Plug-In . SVG Version: 6.00 Build 0)  -->
<!DOCTYPE svg PUBLIC "-//W3C//DTD SVG 1.1//EN" "http://www.w3.org/Graphics/SVG/1.1/DTD/svg11.dtd">
<svg version="1.1" id="Capa_1" xmlns="http://www.w3.org/2000/svg" xmlns:xlink="http://www.w3.org/1999/xlink" x="0px" y="0px"
	 width="16px" height="16px" viewBox="0 0 16 16" enable-background="new 0 0 16 16" xml:space="preserve">
<g>
	<path d="M8.734,1.033H4.548c-1.876,0-3.642,1.422-3.642,3.069c0,1.683,1.279,3.042,3.189,3.042l0.388-0.012
		C4.359,7.369,4.27,7.636,4.27,7.914c0,0.468,0.252,0.847,0.57,1.156L4.114,9.078C1.789,9.077,0,10.559,0,12.093
		c0,1.513,1.962,2.458,4.286,2.458c2.65,0,4.114-1.504,4.114-3.016c0-1.212-0.358-1.939-1.464-2.721
		C6.558,8.546,5.834,7.895,5.834,7.512c0-0.449,0.128-0.67,0.804-1.198C7.33,5.773,7.82,5.012,7.82,4.128
		c0-1.053-0.469-2.08-1.35-2.418h1.327L8.734,1.033z M7.273,11.275c0.033,0.14,0.051,0.283,0.051,0.432
		c0,1.223-0.787,2.177-3.046,2.177c-1.607,0-2.767-1.017-2.767-2.239c0-1.197,1.439-2.193,3.046-2.177
		c0.375,0.005,0.725,0.064,1.042,0.167C6.471,10.24,7.097,10.583,7.273,11.275z M4.7,6.717C3.621,6.685,2.596,5.51,2.41,4.094
		C2.224,2.677,2.947,1.593,4.025,1.625s2.104,1.169,2.29,2.585C6.502,5.627,5.778,6.749,4.7,6.717z"/>
	<polygon points="13,4 13,1.033 12,1.033 12,4 9,4 9,5 12,5 12,8.033 13,8.033 13,5 16,5 16,4 	"/>
</g>
</svg>
