<?xml version="1.0" encoding="utf-8"?>
<!-- Generator: Adobe Illustrator 16.0.4, SVG Export Plug-In . SVG Version: 6.00 Build 0)  -->
<!DOCTYPE svg PUBLIC "-//W3C//DTD SVG 1.1//EN" "http://www.w3.org/Graphics/SVG/1.1/DTD/svg11.dtd">
<svg version="1.1" id="Capa_1" xmlns="http://www.w3.org/2000/svg" xmlns:xlink="http://www.w3.org/1999/xlink" x="0px" y="0px"
	 width="16px" height="16px" viewBox="0 0 16 16" enable-background="new 0 0 16 16" xml:space="preserve">
<g>
	<path d="M6,2H3C2.448,2,2,2.448,2,3v3c0,0.552,0.448,1,1,1h3c0.552,0,1-0.448,1-1V3C7,2.448,6.552,2,6,2z"/>
	<path d="M13,2h-3C9.448,2,9,2.448,9,3v3c0,0.552,0.448,1,1,1h3c0.552,0,1-0.448,1-1V3C14,2.448,13.552,2,13,2z"/>
	<path d="M6,9H3c-0.552,0-1,0.448-1,1v3c0,0.552,0.448,1,1,1h3c0.552,0,1-0.448,1-1v-3C7,9.448,6.552,9,6,9z"/>
	<path d="M13,9h-3c-0.552,0-1,0.448-1,1v3c0,0.552,0.448,1,1,1h3c0.552,0,1-0.448,1-1v-3C14,9.448,13.552,9,13,9z"/>
</g>
</svg>
