<?xml version="1.0" encoding="utf-8"?>
<!-- Generator: Adobe Illustrator 16.0.4, SVG Export Plug-In . SVG Version: 6.00 Build 0)  -->
<!DOCTYPE svg PUBLIC "-//W3C//DTD SVG 1.1//EN" "http://www.w3.org/Graphics/SVG/1.1/DTD/svg11.dtd">
<svg version="1.1" id="Capa_1" xmlns="http://www.w3.org/2000/svg" xmlns:xlink="http://www.w3.org/1999/xlink" x="0px" y="0px"
	 width="16px" height="16px" viewBox="0 0 16 16" enable-background="new 0 0 16 16" xml:space="preserve">
<path d="M16,6.917h-0.008C15.95,4.463,13.959,2.276,11.5,2.276c-1.422,0-2.675,0.744-3.5,1.836C7.175,3.02,5.922,2.276,4.5,2.276
	c-2.459,0-4.45,2.187-4.492,4.641H0l0.003,0.044L0,6.995l0.02,0.187C0.24,13.436,7.937,16,7.937,16s7.81-2.561,8.042-8.808L16,6.995
	l-0.003-0.034L16,6.917z M14.979,7.155c-0.177,4.8-5.658,7.24-7.04,7.779c-1.37-0.539-6.751-2.969-6.92-7.798L1.005,6.99
	l0.003-0.056C1.042,4.951,2.641,3.276,4.5,3.276c1.026,0,2.011,0.524,2.702,1.439C7.391,4.965,7.686,5.112,8,5.112
	s0.609-0.147,0.798-0.397C9.488,3.8,10.475,3.276,11.5,3.276c1.859,0,3.458,1.675,3.492,3.658l0.003,0.057L14.979,7.155z"/>
</svg>
