<?xml version="1.0" encoding="utf-8"?>
<!-- Generator: Adobe Illustrator 16.0.4, SVG Export Plug-In . SVG Version: 6.00 Build 0)  -->
<!DOCTYPE svg PUBLIC "-//W3C//DTD SVG 1.1//EN" "http://www.w3.org/Graphics/SVG/1.1/DTD/svg11.dtd">
<svg version="1.1" id="Capa_1" xmlns="http://www.w3.org/2000/svg" xmlns:xlink="http://www.w3.org/1999/xlink" x="0px" y="0px"
	 width="16px" height="16.408px" viewBox="0 0 16 16.408" enable-background="new 0 0 16 16.408" xml:space="preserve">
<g>
	<path d="M9.348,10.308L3.984,4.945c-0.585-0.585-0.585-1.536,0-2.121l0.795-0.796c0.585-0.585,1.536-0.585,2.121,0l5.364,5.363
		c0.264-0.999,0.016-2.105-0.767-2.888L7.961,0.968c-1.172-1.172-3.071-1.172-4.243,0L2.923,1.763c-1.172,1.172-1.172,3.071,0,4.243
		l3.536,3.536C7.242,10.325,8.348,10.571,9.348,10.308z"/>
	<path d="M13.077,9.993L9.541,6.459c-0.783-0.783-1.889-1.03-2.888-0.766l5.363,5.363c0.586,0.586,0.586,1.536,0,2.121l-0.795,0.797
		c-0.586,0.584-1.537,0.584-2.121,0L3.737,8.609c-0.264,1-0.017,2.105,0.766,2.888l3.536,3.535c1.172,1.172,3.07,1.172,4.243,0
		l0.795-0.797C14.249,13.063,14.249,11.165,13.077,9.993z"/>
</g>
</svg>
