<?xml version="1.0" encoding="utf-8"?>
<!-- Generator: Adobe Illustrator 16.0.4, SVG Export Plug-In . SVG Version: 6.00 Build 0)  -->
<!DOCTYPE svg PUBLIC "-//W3C//DTD SVG 1.1//EN" "http://www.w3.org/Graphics/SVG/1.1/DTD/svg11.dtd">
<svg version="1.1" id="Capa_1" xmlns="http://www.w3.org/2000/svg" xmlns:xlink="http://www.w3.org/1999/xlink" x="0px" y="0px"
	 width="16px" height="16px" viewBox="0 0 16 16" enable-background="new 0 0 16 16" xml:space="preserve">
<g>
	<path d="M13.5,7h-8C5.224,7,5,7.224,5,7.5S5.224,8,5.5,8h8C13.775,8,14,7.776,14,7.5S13.775,7,13.5,7z"/>
	<path d="M5.5,4h8C13.775,4,14,3.776,14,3.5S13.775,3,13.5,3h-8C5.224,3,5,3.224,5,3.5S5.224,4,5.5,4z"/>
	<path d="M13.5,11h-8C5.224,11,5,11.225,5,11.5S5.224,12,5.5,12h8c0.275,0,0.5-0.225,0.5-0.5S13.775,11,13.5,11z"/>
	<circle cx="2.5" cy="3.5" r="0.5"/>
	<circle cx="2.5" cy="7.5" r="0.5"/>
	<circle cx="2.5" cy="11.5" r="0.5"/>
</g>
</svg>
