<?xml version="1.0" encoding="utf-8"?>
<!-- Generator: Adobe Illustrator 16.0.4, SVG Export Plug-In . SVG Version: 6.00 Build 0)  -->
<!DOCTYPE svg PUBLIC "-//W3C//DTD SVG 1.1//EN" "http://www.w3.org/Graphics/SVG/1.1/DTD/svg11.dtd">
<svg version="1.1" id="Capa_1" xmlns="http://www.w3.org/2000/svg" xmlns:xlink="http://www.w3.org/1999/xlink" x="0px" y="0px"
	 width="16px" height="16px" viewBox="0 0 16 16" enable-background="new 0 0 16 16" xml:space="preserve">
<path d="M15,4H1C0.448,4,0,4.448,0,5v10c0,0.552,0.448,1,1,1h14c0.552,0,1-0.448,1-1V5C16,4.448,15.552,4,15,4z M1,7.845
	l3.838,2.609L1,14.293V7.845z M1.707,15l3.973-3.973l2.322,1.578l2.309-1.59L14.293,15H1.707z M15,14.293l-3.854-3.854L15,7.788
	V14.293z M15,6.618l-0.021-0.03l-6.98,4.807L1,6.637V5h14V6.618z"/>
</svg>
