<?xml version="1.0" encoding="utf-8"?>
<!-- Generator: Adobe Illustrator 16.0.4, SVG Export Plug-In . SVG Version: 6.00 Build 0)  -->
<!DOCTYPE svg PUBLIC "-//W3C//DTD SVG 1.1//EN" "http://www.w3.org/Graphics/SVG/1.1/DTD/svg11.dtd">
<svg version="1.1" id="Capa_1" xmlns="http://www.w3.org/2000/svg" xmlns:xlink="http://www.w3.org/1999/xlink" x="0px" y="0px"
	 width="16px" height="16px" viewBox="0 0 16 16" enable-background="new 0 0 16 16" xml:space="preserve">
<g>
	<path d="M12.5,7h-9C3.224,7,3,7.224,3,7.5S3.224,8,3.5,8h9C12.775,8,13,7.776,13,7.5S12.775,7,12.5,7z"/>
	<path d="M3.5,5h9C12.775,5,13,4.776,13,4.5S12.775,4,12.5,4h-9C3.224,4,3,4.224,3,4.5S3.224,5,3.5,5z"/>
	<path d="M12.5,10h-9C3.224,10,3,10.225,3,10.5S3.224,11,3.5,11h9c0.275,0,0.5-0.225,0.5-0.5S12.775,10,12.5,10z"/>
</g>
</svg>
