<?xml version="1.0" encoding="utf-8"?>
<!-- Generator: Adobe Illustrator 16.0.4, SVG Export Plug-In . SVG Version: 6.00 Build 0)  -->
<!DOCTYPE svg PUBLIC "-//W3C//DTD SVG 1.1//EN" "http://www.w3.org/Graphics/SVG/1.1/DTD/svg11.dtd">
<svg version="1.1" id="Capa_1" xmlns="http://www.w3.org/2000/svg" xmlns:xlink="http://www.w3.org/1999/xlink" x="0px" y="0px"
	 width="16px" height="16px" viewBox="0 0 16 16" enable-background="new 0 0 16 16" xml:space="preserve">
<path d="M15,0H1C0.448,0,0,0.448,0,1v14c0,0.552,0.448,1,1,1h14c0.552,0,1-0.448,1-1V1C16,0.448,15.552,0,15,0z M3,15H1v-2h2V15z
	 M3,11H1V9h2V11z M3,7H1V5h2V7z M3,3H1V1h2V3z M12,15H4v-5h8V15z M12,9H4V1h8V9z M15,15h-2v-2h2V15z M15,11h-2V9h2V11z M15,7h-2V5h2
	V7z M15,3h-2V1h2V3z"/>
</svg>
