<?xml version="1.0" encoding="utf-8"?>
<!-- Generator: Adobe Illustrator 16.0.4, SVG Export Plug-In . SVG Version: 6.00 Build 0)  -->
<!DOCTYPE svg PUBLIC "-//W3C//DTD SVG 1.1//EN" "http://www.w3.org/Graphics/SVG/1.1/DTD/svg11.dtd">
<svg version="1.1" id="Capa_1" xmlns="http://www.w3.org/2000/svg" xmlns:xlink="http://www.w3.org/1999/xlink" x="0px" y="0px"
	 width="16px" height="16px" viewBox="0 0 16 16" enable-background="new 0 0 16 16" xml:space="preserve">
<path d="M13,0H3C1.343,0,0,1.343,0,3v10c0,1.657,1.343,3,3,3h10c1.657,0,3-1.343,3-3V3C16,1.343,14.657,0,13,0z M8.624,10.163
	c-0.585-0.045-0.83-0.335-1.288-0.614c-0.252,1.322-0.56,2.59-1.472,3.251C5.582,10.803,6.277,9.303,6.6,7.71
	C6.05,6.783,6.666,4.92,7.826,5.379c1.427,0.565-1.237,3.443,0.552,3.803c1.867,0.375,2.63-3.241,1.472-4.417
	C8.176,3.067,4.98,4.726,5.373,7.157c0.096,0.594,0.709,0.774,0.245,1.595C4.547,8.516,4.227,7.67,4.268,6.544
	c0.066-1.843,1.656-3.133,3.251-3.312c2.017-0.226,3.909,0.74,4.17,2.637C11.984,8.01,10.779,10.33,8.624,10.163z"/>
</svg>
