<?xml version="1.0" encoding="utf-8"?>
<!-- Generator: Adobe Illustrator 16.0.4, SVG Export Plug-In . SVG Version: 6.00 Build 0)  -->
<!DOCTYPE svg PUBLIC "-//W3C//DTD SVG 1.1//EN" "http://www.w3.org/Graphics/SVG/1.1/DTD/svg11.dtd">
<svg version="1.1" id="Capa_1" xmlns="http://www.w3.org/2000/svg" xmlns:xlink="http://www.w3.org/1999/xlink" x="0px" y="0px"
	 width="16px" height="16px" viewBox="0 0 16 16" enable-background="new 0 0 16 16" xml:space="preserve">
<path d="M8,0C3.582,0,0,3.582,0,8s3.582,8,8,8s8-3.582,8-8S12.418,0,8,0z M7.165,7.855c-0.062,1.026-0.525,2.562-2.378,4.057
	c-0.089,0.07-0.193,0.105-0.297,0.105c-0.145,0-0.288-0.066-0.383-0.194c-0.164-0.22-0.126-0.536,0.086-0.706
	C5.702,9.9,6.115,8.708,6.188,7.89C5.974,8.012,5.733,8.089,5.472,8.089c-0.814,0-1.473-0.685-1.473-1.53
	c0-0.845,0.66-1.53,1.473-1.53c0.184,0,0.353,0.048,0.514,0.113L5.981,5.13l0.17,0.081l0.015,0.006l0.008,0.006l0.233,0.165
	l0.102,0.104C6.872,5.853,7.271,6.542,7.165,7.855z M12.014,7.854c-0.062,1.026-0.525,2.562-2.379,4.057
	c-0.089,0.071-0.193,0.106-0.297,0.106c-0.145,0-0.288-0.067-0.383-0.195c-0.164-0.221-0.126-0.536,0.086-0.706
	c1.509-1.218,1.922-2.409,1.995-3.227c-0.213,0.124-0.454,0.2-0.716,0.2c-0.813,0-1.473-0.685-1.473-1.53
	c0-0.845,0.659-1.53,1.473-1.53c0.185,0,0.354,0.048,0.515,0.113L10.829,5.13l0.17,0.081l0.015,0.006l0.008,0.006l0.233,0.165
	l0.103,0.104C11.721,5.853,12.118,6.542,12.014,7.854z"/>
</svg>
