<?xml version="1.0" encoding="utf-8"?>
<!-- Generator: Adobe Illustrator 16.0.4, SVG Export Plug-In . SVG Version: 6.00 Build 0)  -->
<!DOCTYPE svg PUBLIC "-//W3C//DTD SVG 1.1//EN" "http://www.w3.org/Graphics/SVG/1.1/DTD/svg11.dtd">
<svg version="1.1" id="Capa_1" xmlns="http://www.w3.org/2000/svg" xmlns:xlink="http://www.w3.org/1999/xlink" x="0px" y="0px"
	 width="16px" height="16px" viewBox="0 0 16 16" enable-background="new 0 0 16 16" xml:space="preserve">
<g>
	<path d="M8,0C3.582,0,0,3.582,0,8s3.582,8,8,8s8-3.582,8-8S12.418,0,8,0z M8,15c-3.86,0-7-3.141-7-7c0-3.86,3.14-7,7-7
		c3.859,0,7,3.14,7,7C15,11.859,11.859,15,8,15z"/>
	<path d="M6.407,5.388L6.174,5.223L6.166,5.217L6.151,5.211L5.981,5.13l0.005,0.012c-0.161-0.066-0.33-0.113-0.514-0.113
		c-0.814,0-1.473,0.685-1.473,1.53c0,0.845,0.66,1.53,1.473,1.53c0.261,0,0.502-0.076,0.715-0.2C6.114,8.707,5.702,9.9,4.192,11.116
		c-0.211,0.171-0.25,0.487-0.086,0.706c0.096,0.128,0.239,0.195,0.383,0.195c0.104,0,0.208-0.035,0.297-0.106
		c1.853-1.495,2.316-3.031,2.378-4.057C7.27,6.542,6.872,5.852,6.508,5.492L6.407,5.388z"/>
	<path d="M11.255,5.388l-0.233-0.165l-0.008-0.006l-0.015-0.006l-0.17-0.081l0.005,0.012c-0.161-0.066-0.331-0.113-0.514-0.113
		c-0.814,0-1.473,0.685-1.473,1.53c0,0.845,0.658,1.53,1.473,1.53c0.261,0,0.502-0.076,0.715-0.2
		C10.962,8.707,10.55,9.9,9.04,11.116c-0.212,0.171-0.25,0.487-0.086,0.706c0.096,0.128,0.239,0.195,0.383,0.195
		c0.104,0,0.208-0.035,0.297-0.106c1.853-1.495,2.316-3.031,2.378-4.057c0.106-1.312-0.293-2.002-0.656-2.362L11.255,5.388z"/>
</g>
</svg>
