<?xml version="1.0" encoding="utf-8"?>
<!-- Generator: Adobe Illustrator 16.0.4, SVG Export Plug-In . SVG Version: 6.00 Build 0)  -->
<!DOCTYPE svg PUBLIC "-//W3C//DTD SVG 1.1//EN" "http://www.w3.org/Graphics/SVG/1.1/DTD/svg11.dtd">
<svg version="1.1" id="Capa_1" xmlns="http://www.w3.org/2000/svg" xmlns:xlink="http://www.w3.org/1999/xlink" x="0px" y="0px"
	 width="16.125px" height="16.125px" viewBox="0 0 16.125 16.125" enable-background="new 0 0 16.125 16.125" xml:space="preserve">
<path d="M9.5,0C5.91,0,3,2.91,3,6.5c0,1.545,0.542,2.962,1.442,4.08l-4.296,4.295c-0.27,0.271-0.27,0.709,0,0.979
	s0.709,0.271,0.979,0l4.296-4.296C6.537,12.458,7.955,13,9.5,13c3.59,0,6.5-2.91,6.5-6.5C16,2.91,13.089,0,9.5,0z M9.5,12
	C6.467,12,4,9.533,4,6.5C4,3.467,6.467,1,9.5,1C12.533,1,15,3.467,15,6.5C15,9.533,12.533,12,9.5,12z"/>
</svg>
