<?xml version="1.0" encoding="utf-8"?>
<!-- Generator: Adobe Illustrator 16.0.4, SVG Export Plug-In . SVG Version: 6.00 Build 0)  -->
<!DOCTYPE svg PUBLIC "-//W3C//DTD SVG 1.1//EN" "http://www.w3.org/Graphics/SVG/1.1/DTD/svg11.dtd">
<svg version="1.1" id="Capa_1" xmlns="http://www.w3.org/2000/svg" xmlns:xlink="http://www.w3.org/1999/xlink" x="0px" y="0px"
	 width="16px" height="16px" viewBox="0 0 16 16" enable-background="new 0 0 16 16" xml:space="preserve">
<path d="M13,0H3C2.448,0,2,0.448,2,1v14c0,0.404,0.244,0.77,0.617,0.924C2.741,15.975,2.871,16,3,16c0.26,0,0.516-0.102,0.707-0.293
	L8,11.414l4.293,4.293C12.484,15.898,12.74,16,13,16c0.129,0,0.259-0.025,0.382-0.076C13.756,15.77,14,15.404,14,15V1
	C14,0.448,13.552,0,13,0z M13,15l-5-5l-5,5V4h10V15z M13,3H3V1h10V3z"/>
</svg>
