<?xml version="1.0" encoding="utf-8"?>
<!-- Generator: Adobe Illustrator 17.0.0, SVG Export Plug-In . SVG Version: 6.00 Build 0)  -->
<!DOCTYPE svg PUBLIC "-//W3C//DTD SVG 1.1//EN" "http://www.w3.org/Graphics/SVG/1.1/DTD/svg11.dtd">
<svg version="1.1" id="Capa_1" xmlns="http://www.w3.org/2000/svg" xmlns:xlink="http://www.w3.org/1999/xlink" x="0px" y="0px"
	 width="16px" height="16px" viewBox="0 0 16 16" enable-background="new 0 0 16 16" xml:space="preserve">
<path d="M14.529,1.005H8.192C8.039,1.012,7.691,1.251,7.646,1.296L0.292,8.65c-0.39,0.39-0.39,1.021,0,1.412l5.646,5.646
	C6.134,15.902,6.389,16,6.644,16s0.511-0.098,0.706-0.292l7.354-7.354C14.749,8.309,15,8,15,7.808V1.501
	C15.014,1.222,14.803,1.005,14.529,1.005z M14,7.621l-0.044,0.066L6.645,15L0.999,9.357l7.313-7.313L8.379,2H14V7.621z M12,3.5
	C12,3.224,12.224,3,12.5,3S13,3.224,13,3.5S12.776,4,12.5,4S12,3.776,12,3.5z"/>
</svg>
