<?xml version="1.0" encoding="utf-8"?>
<!-- Generator: Adobe Illustrator 16.0.4, SVG Export Plug-In . SVG Version: 6.00 Build 0)  -->
<!DOCTYPE svg PUBLIC "-//W3C//DTD SVG 1.1//EN" "http://www.w3.org/Graphics/SVG/1.1/DTD/svg11.dtd">
<svg version="1.1" id="Capa_1" xmlns="http://www.w3.org/2000/svg" xmlns:xlink="http://www.w3.org/1999/xlink" x="0px" y="0px"
	 width="16.066px" height="16.066px" viewBox="0 0 16.066 16.066" enable-background="new 0 0 16.066 16.066" xml:space="preserve">
<g>
	<path d="M9.5,0C5.91,0,3,2.91,3,6.5c0,1.545,0.541,2.961,1.44,4.077l-4.236,4.236c-0.271,0.271-0.271,0.711,0,0.982
		c0.271,0.271,0.711,0.271,0.981,0l4.237-4.237C6.539,12.459,7.955,13,9.5,13c3.59,0,6.5-2.91,6.5-6.5S13.09,0,9.5,0z M9.5,12
		C6.467,12,4,9.533,4,6.5S6.467,1,9.5,1S15,3.467,15,6.5S12.533,12,9.5,12z"/>
	<path d="M12.5,6H10V3.5C10,3.224,9.776,3,9.5,3C9.224,3,9,3.224,9,3.5V6H6.5C6.224,6,6,6.224,6,6.5C6,6.776,6.224,7,6.5,7H9v2.5
		C9,9.776,9.224,10,9.5,10C9.776,10,10,9.776,10,9.5V7h2.5C12.776,7,13,6.776,13,6.5C13,6.224,12.776,6,12.5,6z"/>
</g>
</svg>
