<?xml version="1.0" encoding="UTF-8" standalone="no"?>
<svg width="30px" height="30px" viewBox="0 0 30 30" version="1.1" xmlns="http://www.w3.org/2000/svg" xmlns:xlink="http://www.w3.org/1999/xlink" xmlns:sketch="http://www.bohemiancoding.com/sketch/ns">
    <!-- Generator: Sketch 3.4 (15575) - http://www.bohemiancoding.com/sketch -->
    <title>bookmark-filled</title>
    <desc>Created with Sketch.</desc>
    <defs></defs>
    <g id="Page-1" stroke="none" stroke-width="1" fill="none" fill-rule="evenodd" sketch:type="MSPage">
        <g id="bookmark-filled" sketch:type="MSArtboardGroup" fill="#000000">
            <g sketch:type="MSLayerGroup" transform="translate(5.000000, 1.000000)" id="Capa_1">
                <g sketch:type="MSShapeGroup">
                    <g id="Group">
                        <path d="M0,26.25 C0,26.957 0.427,27.5975 1.07975,27.867 C1.29675,27.95625 1.52425,28 1.75,28 C2.205,28 2.653,27.8215 2.98725,27.48725 L10.5,19.9745 L18.01275,27.48725 C18.347,27.8215 18.795,28 19.25,28 C19.47575,28 19.70325,27.95625 19.9185,27.867 C20.573,27.5975 21,26.957 21,26.25 L21,5.25 L0,5.25 L0,26.25 L0,26.25 Z" id="Shape"></path>
                        <path d="M19.25,0 L1.75,0 C0.784,0 0,0.784 0,1.75 L0,3.5 L21,3.5 L21,1.75 C21,0.784 20.216,0 19.25,0 L19.25,0 Z" id="Shape"></path>
                    </g>
                </g>
            </g>
        </g>
    </g>
</svg>