<?xml version="1.0" encoding="UTF-8" standalone="no"?>
<svg width="30px" height="30px" viewBox="0 0 30 30" version="1.1" xmlns="http://www.w3.org/2000/svg" xmlns:xlink="http://www.w3.org/1999/xlink" xmlns:sketch="http://www.bohemiancoding.com/sketch/ns">
    <!-- Generator: Sketch 3.4 (15575) - http://www.bohemiancoding.com/sketch -->
    <title>chevron-circle-up-filled</title>
    <desc>Created with Sketch.</desc>
    <defs></defs>
    <g id="Page-1" stroke="none" stroke-width="1" fill="none" fill-rule="evenodd" sketch:type="MSPage">
        <g id="chevron-circle-up-filled" sketch:type="MSArtboardGroup" fill="#000000">
            <g id="chevron-circle-right-filled" sketch:type="MSLayerGroup" transform="translate(15.000000, 15.000000) rotate(-90.000000) translate(-15.000000, -15.000000) translate(1.000000, 1.000000)">
                <g id="Capa_1" sketch:type="MSShapeGroup">
                    <path d="M14,0 C6.26826667,0 0,6.26826667 0,14 C0,21.7336 6.26826667,28 14,28 C21.7336,28 28,21.7336 28,14 C28,6.26826667 21.7336,0 14,0 L14,0 Z M18.3866667,14.6626667 L12.3330667,20.7144 C11.9690667,21.0784 11.3773333,21.0784 11.0133333,20.7144 C10.6493333,20.3504 10.6493333,19.7586667 11.0133333,19.3946667 L16.4098667,14 L11.0133333,8.60346667 C10.6493333,8.23946667 10.6493333,7.64773333 11.0133333,7.28373333 C11.3773333,6.91973333 11.9690667,6.91973333 12.3330667,7.28373333 L18.3866667,13.3373333 C18.5714667,13.5202667 18.6610667,13.7610667 18.6592,14 C18.6592,14.2408 18.5696,14.4797333 18.3866667,14.6626667 L18.3866667,14.6626667 Z" id="Shape"></path>
                </g>
            </g>
        </g>
    </g>
</svg>