<?xml version="1.0" encoding="UTF-8" standalone="no"?>
<svg width="30px" height="30px" viewBox="0 0 30 30" version="1.1" xmlns="http://www.w3.org/2000/svg" xmlns:xlink="http://www.w3.org/1999/xlink" xmlns:sketch="http://www.bohemiancoding.com/sketch/ns">
    <!-- Generator: Sketch 3.4 (15575) - http://www.bohemiancoding.com/sketch -->
    <title>close</title>
    <desc>Created with Sketch.</desc>
    <defs></defs>
    <g id="Page-1" stroke="none" stroke-width="1" fill="none" fill-rule="evenodd" sketch:type="MSPage">
        <g id="close" sketch:type="MSArtboardGroup" fill="#000000">
            <path d="M20.1669333,8.51333333 L15.0373333,13.6448 L10.4341333,8.51333333 C10.0701333,8.14933333 9.4784,8.14933333 9.1144,8.51333333 C8.7504,8.87733333 8.7504,9.46906667 9.1144,9.83306667 L13.7176,14.9645333 L8.5152,20.1669333 C8.1512,20.5309333 8.1512,21.1226667 8.5152,21.4866667 C8.8792,21.8506667 9.47093333,21.8506667 9.83493333,21.4866667 L14.9664,16.3570667 L19.5696,21.4866667 C19.9317333,21.8506667 20.5253333,21.8506667 20.8874667,21.4866667 C21.2514667,21.1226667 21.2514667,20.5309333 20.8874667,20.1669333 L16.2842667,15.0373333 L21.4866667,9.83306667 C21.8506667,9.46906667 21.8506667,8.87733333 21.4866667,8.51333333 C21.1208,8.14933333 20.5309333,8.14933333 20.1669333,8.51333333 L20.1669333,8.51333333 Z" id="Shape" sketch:type="MSShapeGroup"></path>
        </g>
    </g>
</svg>