<?xml version="1.0" encoding="UTF-8" standalone="no"?>
<svg width="30px" height="30px" viewBox="0 0 30 30" version="1.1" xmlns="http://www.w3.org/2000/svg" xmlns:xlink="http://www.w3.org/1999/xlink" xmlns:sketch="http://www.bohemiancoding.com/sketch/ns">
    <!-- Generator: Sketch 3.4 (15575) - http://www.bohemiancoding.com/sketch -->
    <title>close-circle</title>
    <desc>Created with Sketch.</desc>
    <defs></defs>
    <g id="Page-1" stroke="none" stroke-width="1" fill="none" fill-rule="evenodd" sketch:type="MSPage">
        <g id="close-circle" sketch:type="MSArtboardGroup" fill="#000000">
            <g sketch:type="MSLayerGroup" transform="translate(1.000000, 1.000000)" id="Capa_1">
                <g sketch:type="MSShapeGroup">
                    <g id="Group">
                        <path d="M14,0 C6.26826667,0 0,6.26826667 0,14 C0,21.7336 6.26826667,28 14,28 C21.7336,28 28,21.7336 28,14 C28,6.26826667 21.7336,0 14,0 L14,0 Z M14,26.1333333 C7.30986667,26.1333333 1.86666667,20.6901333 1.86666667,14 C1.86666667,7.30986667 7.30986667,1.86666667 14,1.86666667 C20.6901333,1.86666667 26.1333333,7.30986667 26.1333333,14 C26.1333333,20.6901333 20.6901333,26.1333333 14,26.1333333 L14,26.1333333 Z" id="Shape"></path>
                        <path d="M19.1669333,7.51333333 L14.0373333,12.6448 L9.43413333,7.51333333 C9.07013333,7.14933333 8.4784,7.14933333 8.1144,7.51333333 C7.7504,7.87733333 7.7504,8.46906667 8.1144,8.83306667 L12.7176,13.9645333 L7.5152,19.1669333 C7.1512,19.5309333 7.1512,20.1226667 7.5152,20.4866667 C7.8792,20.8506667 8.47093333,20.8506667 8.83493333,20.4866667 L13.9664,15.3570667 L18.5696,20.4866667 C18.9317333,20.8506667 19.5253333,20.8506667 19.8874667,20.4866667 C20.2514667,20.1226667 20.2514667,19.5309333 19.8874667,19.1669333 L15.2842667,14.0373333 L20.4866667,8.83306667 C20.8506667,8.46906667 20.8506667,7.87733333 20.4866667,7.51333333 C20.1208,7.14933333 19.5309333,7.14933333 19.1669333,7.51333333 L19.1669333,7.51333333 Z" id="Shape"></path>
                    </g>
                </g>
            </g>
        </g>
    </g>
</svg>