<?xml version="1.0" encoding="UTF-8" standalone="no"?>
<svg width="30px" height="30px" viewBox="0 0 30 30" version="1.1" xmlns="http://www.w3.org/2000/svg" xmlns:xlink="http://www.w3.org/1999/xlink" xmlns:sketch="http://www.bohemiancoding.com/sketch/ns">
    <!-- Generator: Sketch 3.4 (15575) - http://www.bohemiancoding.com/sketch -->
    <title>cross</title>
    <desc>Created with Sketch.</desc>
    <defs></defs>
    <g id="Page-1" stroke="none" stroke-width="1" fill="none" fill-rule="evenodd" sketch:type="MSPage">
        <g id="cross" sketch:type="MSArtboardGroup" fill="#000000">
            <path d="M22.4666667,14.0666667 L15.9333333,14.0666667 L15.9333333,7.53333333 C15.9333333,7.01813333 15.5133333,6.6 15,6.6 C14.4848,6.6 14.0666667,7.01813333 14.0666667,7.53333333 L14.0666667,14.0666667 L7.53333333,14.0666667 C7.01813333,14.0666667 6.6,14.4848 6.6,15 C6.6,15.5133333 7.01813333,15.9333333 7.53333333,15.9333333 L14.0666667,15.9333333 L14.0666667,22.4666667 C14.0666667,22.98 14.4848,23.4 15,23.4 C15.5133333,23.4 15.9333333,22.98 15.9333333,22.4666667 L15.9333333,15.9333333 L22.4666667,15.9333333 C22.98,15.9333333 23.4,15.5133333 23.4,15 C23.4,14.4848 22.98,14.0666667 22.4666667,14.0666667 L22.4666667,14.0666667 Z" id="Shape" sketch:type="MSShapeGroup"></path>
        </g>
    </g>
</svg>